<svg xmlns="http://www.w3.org/2000/svg" width="3" height="6" viewBox="0 0 3 6" fill="none">
  <path d="M 0.75 0 C 0.75 -0.414 0.414 -0.75 0 -0.75 C -0.414 -0.75 -0.75 -0.414 -0.75 0 L 0 0 L 0.75 0 Z M 0 4.5 L -0.75 4.5 C -0.75 4.784 -0.589 5.044 -0.335 5.171 L 0 4.5 Z M 2.665 6.671 C 3.035 6.856 3.486 6.706 3.671 6.335 C 3.856 5.965 3.706 5.514 3.335 5.329 L 3 6 L 2.665 6.671 Z M 0 0 L -0.75 0 L -0.75 4.5 L 0 4.5 L 0.75 4.5 L 0.75 0 L 0 0 Z M 0 4.5 L -0.335 5.171 L 2.665 6.671 L 3 6 L 3.335 5.329 L 0.335 3.829 L 0 4.5 Z" fill="currentColor" fill-rule="nonzero"/>
</svg>
