<svg xmlns="http://www.w3.org/2000/svg" width="15" height="15" viewBox="0 0 15 15" fill="none">
  <path d="M 15 7.5 L 14.25 7.5 C 14.25 11.228 11.228 14.25 7.5 14.25 L 7.5 15 L 7.5 15.75 C 12.056 15.75 15.75 12.056 15.75 7.5 L 15 7.5 Z M 7.5 15 L 7.5 14.25 C 3.772 14.25 0.75 11.228 0.75 7.5 L 0 7.5 L -0.75 7.5 C -0.75 12.056 2.944 15.75 7.5 15.75 L 7.5 15 Z M 0 7.5 L 0.75 7.5 C 0.75 3.772 3.772 0.75 7.5 0.75 L 7.5 0 L 7.5 -0.75 C 2.944 -0.75 -0.75 2.944 -0.75 7.5 L 0 7.5 Z M 7.5 0 L 7.5 0.75 C 11.228 0.75 14.25 3.772 14.25 7.5 L 15 7.5 L 15.75 7.5 C 15.75 2.944 12.056 -0.75 7.5 -0.75 L 7.5 0 Z" fill="currentColor" fill-rule="nonzero"/>
</svg>
