<svg xmlns="http://www.w3.org/2000/svg" width="68.365" height="36.501" viewBox="0 0 68.365 36.501" fill="none">
  <path d="M 31.365 3.546 C 31.782 4.685 31.399 6.022 30.645 6.654 C 30.324 6.924 30.04 7.083 29.558 7.23 L 29.243 7.317 C 29.186 7.331 29.127 7.346 29.064 7.361 L 28.657 7.452 L 26.733 7.845 L 26.492 7.897 L 26.626 7.968 L 26.872 8.101 L 27.34 8.364 C 27.819 8.64 27.982 9.252 27.706 9.73 C 27.43 10.209 26.819 10.372 26.34 10.096 L 26.127 9.975 L 25.681 9.73 L 24.147 8.928 L 23.461 8.562 C 23.348 8.501 23.234 8.439 23.12 8.376 L 22.415 7.985 L 21.649 7.547 C 21.171 7.271 21.007 6.659 21.283 6.181 C 21.559 5.703 22.171 5.539 22.649 5.815 L 23.395 6.241 C 23.514 6.308 23.629 6.373 23.743 6.436 L 23.878 6.51 C 23.979 6.439 24.096 6.386 24.223 6.356 L 24.77 6.229 L 25.814 5.996 L 26.583 5.834 L 28.165 5.512 L 28.611 5.413 L 28.833 5.357 L 29.006 5.305 C 29.031 5.297 29.054 5.288 29.076 5.28 L 29.193 5.23 L 29.284 5.179 L 29.359 5.122 C 29.479 5.022 29.609 4.567 29.487 4.234 C 29.281 3.671 28.469 3.189 26.757 2.996 L 23.374 2.648 L 21.509 2.464 L 19.43 2.267 L 17.305 2.08 L 16.346 2.003 L 16.19 2.006 L 16.074 2.017 L 15.877 2.051 L 15.727 2.086 L 15.56 2.131 L 15.275 2.219 L 14.819 2.378 L 14.264 2.591 L 13.595 2.862 L 12.347 3.389 L 10.075 4.375 L 9.967 4.413 L 9.894 4.43 L 9.817 4.442 C 9.804 4.443 9.79 4.444 9.776 4.444 L 9.69 4.444 L 9.595 4.435 L 9.489 4.417 L 9.37 4.388 L 9.162 4.324 L 9.001 4.267 L 8.719 4.156 L 8.502 4.064 L 7.987 3.835 L 7.171 3.455 L 4.835 2.335 C 4.338 2.095 4.129 1.498 4.369 1 C 4.609 0.503 5.206 0.294 5.704 0.534 L 7.457 1.37 L 8.168 1.702 L 8.945 2.055 L 9.416 2.261 L 9.676 2.366 L 11.697 1.489 L 12.834 1.007 L 13.41 0.772 L 14.069 0.515 L 14.358 0.409 L 14.746 0.277 L 15.089 0.174 L 15.296 0.12 L 15.488 0.077 L 15.668 0.044 L 15.839 0.021 L 16.002 0.006 C 16.028 0.005 16.055 0.003 16.081 0.002 L 16.316 0 L 16.548 0.012 L 17.796 0.114 L 20.001 0.311 L 22.607 0.562 L 26.151 0.922 L 26.702 0.98 C 29.266 1.215 30.84 2.111 31.365 3.546 Z" fill="currentColor" fill-rule="nonzero"/>
  <path d="M 20.062 23.913 C 20.521 24.112 21.067 23.939 21.324 23.495 C 21.6 23.016 21.436 22.405 20.958 22.129 L 18.019 20.432 L 17.915 20.38 C 17.455 20.181 16.909 20.354 16.653 20.798 C 16.377 21.276 16.541 21.888 17.019 22.164 L 19.958 23.861 L 20.062 23.913 Z" fill="currentColor" fill-rule="nonzero"/>
  <path d="M 14.754 26.114 C 14.497 26.558 13.952 26.731 13.492 26.532 L 13.388 26.48 L 8.912 23.895 C 8.761 23.808 8.555 23.605 8.311 23.311 L 8.093 23.036 C 8.056 22.987 8.017 22.936 7.978 22.883 L 7.736 22.547 L 7.481 22.173 L 7.215 21.766 L 6.94 21.329 C 6.894 21.254 6.847 21.177 6.8 21.1 L 6.517 20.622 L 6.23 20.123 L 5.943 19.604 C 5.895 19.516 5.847 19.428 5.8 19.338 L 5.515 18.797 C 5.468 18.706 5.421 18.614 5.375 18.522 L 5.098 17.965 L 4.83 17.402 L 4.572 16.836 L 4.327 16.27 C 4.247 16.082 4.17 15.894 4.096 15.707 L 3.973 15.389 L 3.015 14.661 L 1.001 13.154 L 0.636 12.873 L 0.429 12.703 L 0.339 12.622 L 0.251 12.535 L 0.219 12.493 L 0.145 12.364 L 0.057 12.198 C -0.127 11.677 0.147 11.106 0.667 10.922 C 1.028 10.795 1.413 10.887 1.676 11.128 L 1.738 11.191 L 2.017 11.414 L 4.954 13.619 L 5.272 13.868 L 5.437 14.006 L 5.565 14.129 L 5.597 14.17 L 5.64 14.241 L 5.758 14.457 C 6.477 16.398 7.44 18.313 8.498 20.032 L 8.67 20.307 L 9.005 20.828 C 9.17 21.078 9.33 21.311 9.48 21.522 L 9.726 21.86 L 9.902 22.087 L 9.99 22.194 C 9.994 22.202 9.989 22.205 9.956 22.188 L 14.388 24.748 C 14.866 25.024 15.03 25.635 14.754 26.114 Z" fill="currentColor" fill-rule="nonzero"/>
  <path d="M 17.269 27.865 C 17.821 27.865 18.269 27.417 18.269 26.865 C 18.269 26.313 17.821 25.865 17.269 25.865 C 16.717 25.865 16.269 26.313 16.269 26.865 C 16.269 27.417 16.717 27.865 17.269 27.865 Z" fill="currentColor" fill-rule="nonzero"/>
  <path d="M 48.687 30.527 C 48.411 30.048 48.575 29.437 49.053 29.161 L 49.266 29.037 L 49.701 28.773 L 51.493 27.638 C 51.603 27.57 51.712 27.502 51.822 27.434 L 52.493 27.027 L 53.214 26.6 C 53.341 26.526 53.472 26.45 53.607 26.372 C 54.085 26.096 54.697 26.26 54.973 26.738 C 55.249 27.217 55.085 27.828 54.607 28.104 L 53.864 28.538 L 53.476 28.77 C 53.47 28.803 53.462 28.835 53.452 28.867 C 53.342 29.233 53.235 29.582 53.128 29.921 L 52.807 30.918 L 52.16 32.863 L 52.074 33.138 L 52.012 33.359 L 51.971 33.534 L 51.965 33.565 C 51.962 33.58 51.959 33.594 51.957 33.607 L 51.942 33.733 L 51.941 33.838 L 51.952 33.932 C 51.979 34.085 52.308 34.425 52.658 34.486 C 53.248 34.589 54.071 34.127 55.095 32.741 L 57.371 29.591 L 59.161 27.083 L 60.234 25.56 L 60.968 24.503 C 61.024 24.421 61.08 24.34 61.134 24.261 C 61.294 24.028 61.452 23.65 61.606 23.133 L 61.708 22.767 L 61.808 22.36 L 61.907 21.913 L 62.003 21.425 L 62.097 20.897 L 62.189 20.33 L 62.278 19.723 C 62.293 19.618 62.308 19.512 62.322 19.404 L 62.407 18.739 L 62.488 18.035 C 62.492 17.996 62.497 17.959 62.503 17.923 L 62.527 17.818 L 62.55 17.749 L 62.601 17.643 L 62.648 17.568 L 62.708 17.488 L 62.824 17.355 L 62.922 17.256 L 63.104 17.087 L 63.423 16.816 L 64.088 16.287 L 65.401 15.289 L 66.765 14.265 C 67.207 13.933 67.834 14.023 68.165 14.465 C 68.496 14.907 68.407 15.534 67.965 15.865 L 66.174 17.219 L 65.238 17.945 L 64.8 18.294 L 64.438 18.596 L 64.336 19.429 C 64.32 19.556 64.304 19.681 64.287 19.803 L 64.185 20.518 C 63.837 22.826 63.41 24.389 62.863 25.27 L 62.783 25.392 L 62.071 26.421 L 61.25 27.594 L 59.812 29.618 L 57.512 32.814 L 56.868 33.701 C 55.382 35.804 53.82 36.719 52.314 36.457 C 51.12 36.248 50.154 35.248 49.983 34.279 C 49.902 33.825 49.915 33.477 50.065 32.898 L 50.161 32.557 L 50.286 32.158 L 50.873 30.398 L 50.754 30.473 L 50.284 30.758 C 50.207 30.803 50.131 30.848 50.053 30.893 C 49.575 31.169 48.964 31.005 48.687 30.527 Z" fill="currentColor" fill-rule="nonzero"/>
  <path d="M 58.596 7.692 L 56.053 8.814 L 55.569 9.015 L 55.373 9.086 C 55.193 9.144 55.103 9.167 54.941 9.15 L 54.833 9.135 C 52.799 8.791 50.667 8.67 48.658 8.727 L 48.336 8.738 L 47.719 8.768 L 47.149 8.808 C 47.058 8.816 46.97 8.824 46.885 8.832 L 46.471 8.877 L 46.188 8.915 L 46.052 8.937 C 46.043 8.937 46.044 8.931 46.075 8.911 L 39.769 12.551 C 39.291 12.827 38.679 12.663 38.403 12.185 C 38.146 11.741 38.269 11.182 38.671 10.883 L 38.769 10.819 L 45.118 7.153 C 45.317 7.038 45.735 6.942 46.308 6.869 L 46.713 6.824 C 46.784 6.817 46.857 6.811 46.932 6.804 L 47.398 6.77 L 47.899 6.744 L 48.433 6.726 C 48.524 6.724 48.616 6.722 48.71 6.72 L 49.282 6.715 L 49.875 6.719 L 50.485 6.732 L 51.108 6.755 L 51.738 6.788 L 52.373 6.831 L 53.008 6.885 L 53.638 6.95 C 53.951 6.985 54.261 7.025 54.566 7.069 L 54.917 7.123 L 55.134 7.032 L 57.898 5.815 L 58.169 5.701 L 58.379 5.616 L 58.517 5.566 L 58.577 5.546 C 58.796 5.477 58.886 5.457 59.128 5.502 C 59.67 5.603 60.029 6.125 59.928 6.668 C 59.826 7.211 59.304 7.569 58.761 7.468 C 58.829 7.481 58.871 7.493 58.899 7.503 L 58.955 7.524 C 58.974 7.529 58.989 7.525 59.038 7.506 L 58.596 7.692 Z" fill="currentColor" fill-rule="nonzero"/>
  <path d="M 43.269 15.865 C 43.821 15.865 44.269 15.417 44.269 14.865 C 44.269 14.313 43.821 13.865 43.269 13.865 C 42.717 13.865 42.269 14.313 42.269 14.865 C 42.269 15.417 42.717 15.865 43.269 15.865 Z" fill="currentColor" fill-rule="nonzero"/>
</svg>
