<svg xmlns="http://www.w3.org/2000/svg" width="29.988" height="44.000" viewBox="0 0 29.988 44.000" fill="none">
  <path d="M 19.982 3.308 C 19.883 1.464 18.356 0 16.488 0 C 14.555 0 12.988 1.567 12.988 3.5 L 12.988 5.337 C 12.533 5.121 12.024 5 11.488 5 C 9.555 5 7.988 6.567 7.988 8.5 L 7.988 23.385 L 7.379 22.671 L 6.157 21.212 L 5.536 20.483 L 5.161 20.058 L 4.946 19.826 L 4.754 19.63 C 4.724 19.601 4.694 19.572 4.665 19.545 L 4.5 19.395 C 4.421 19.328 4.346 19.27 4.273 19.219 L 4.13 19.128 C 4.06 19.086 3.989 19.051 3.917 19.019 L 3.77 18.96 C 2.845 18.624 1.495 18.961 0.718 19.891 C -0.262 21.063 -0.251 22.874 0.827 25.213 L 2.317 28.534 L 3.764 31.71 L 4.53 33.358 L 5.066 34.49 L 5.136 34.629 C 5.476 35.268 6.108 36.029 7.04 36.932 L 7.492 37.359 C 7.807 37.65 8.151 37.955 8.524 38.274 L 9.104 38.764 C 9.305 38.93 9.513 39.101 9.728 39.275 L 9.987 39.483 L 9.987 43 L 9.995 43.126 C 10.057 43.619 10.477 44 10.987 44 C 11.539 44 11.987 43.552 11.987 43 L 11.987 38.516 L 11.319 37.987 L 10.509 37.329 L 10.012 36.913 L 9.549 36.516 L 9.122 36.137 L 8.729 35.778 L 8.372 35.438 C 8.259 35.327 8.151 35.221 8.05 35.117 L 7.764 34.817 L 7.513 34.537 L 7.298 34.277 C 7.101 34.029 6.958 33.811 6.87 33.627 L 6.478 32.801 L 5.738 31.215 L 4.522 28.556 L 2.545 24.157 C 1.857 22.577 1.868 21.633 2.252 21.174 C 2.48 20.901 2.939 20.786 3.086 20.84 C 3.099 20.845 3.116 20.854 3.137 20.869 L 3.211 20.929 L 3.31 21.021 L 3.59 21.312 L 3.99 21.76 L 4.523 22.379 L 5.857 23.968 L 6.392 24.598 L 6.877 25.16 L 7.335 25.678 L 7.788 26.178 L 8.259 26.685 C 8.505 26.948 8.86 27.047 9.189 26.98 C 9.214 26.975 9.238 26.969 9.261 26.962 C 9.681 26.843 9.988 26.457 9.988 26 L 9.988 8.5 L 9.995 8.356 C 10.067 7.595 10.708 7 11.488 7 C 12.316 7 12.988 7.672 12.988 8.5 L 12.988 21 L 12.994 21.117 C 13.052 21.614 13.475 22 13.988 22 C 14.54 22 14.988 21.552 14.988 21 L 14.988 3.5 L 14.995 3.356 C 15.067 2.595 15.708 2 16.488 2 C 17.316 2 17.988 2.672 17.988 3.5 L 17.988 21 L 17.994 21.117 C 18.052 21.614 18.475 22 18.988 22 C 19.54 22 19.988 21.552 19.988 21 L 19.988 6.471 L 19.994 6.329 C 20.067 5.586 20.705 5 21.488 5 C 22.319 5 22.988 5.661 22.988 6.471 L 22.988 21 L 22.994 21.117 C 23.052 21.614 23.475 22 23.988 22 C 24.54 22 24.988 21.552 24.988 21 L 24.988 10.471 L 24.994 10.329 C 25.067 9.586 25.705 9 26.488 9 C 27.319 9 27.988 9.661 27.988 10.471 L 27.988 29 L 27.984 29.291 C 27.941 31.107 27.479 32.44 26.153 34.449 C 26.009 34.667 25.763 34.955 25.416 35.316 L 25.095 35.642 L 24.724 36.004 L 24.354 36.355 L 22.986 37.62 L 22.476 38.101 L 21.988 38.586 L 21.988 43 L 21.994 43.117 C 22.052 43.614 22.475 44 22.988 44 L 23.104 43.993 C 23.602 43.936 23.988 43.513 23.988 43 L 23.988 39.422 L 24.087 39.328 L 25.723 37.813 L 26.126 37.43 L 26.547 37.019 C 27.138 36.43 27.553 35.959 27.822 35.551 C 29.427 33.12 29.988 31.375 29.988 29 L 29.988 10.471 L 29.982 10.28 C 29.883 8.449 28.354 7 26.488 7 C 25.951 7 25.442 7.12 24.988 7.334 L 24.988 6.471 L 24.982 6.28 C 24.883 4.449 23.354 3 21.488 3 C 20.949 3 20.439 3.121 19.983 3.336 L 19.982 3.308 Z" fill="currentColor" fill-rule="nonzero"/>
</svg>
