<svg xmlns="http://www.w3.org/2000/svg" width="5" height="5" viewBox="0 0 5 5" fill="none">
  <path d="M 5 2.5 L 4.167 2.5 C 4.167 3.42 3.42 4.167 2.5 4.167 L 2.5 5 L 2.5 5.833 C 4.341 5.833 5.833 4.341 5.833 2.5 L 5 2.5 Z M 2.5 5 L 2.5 4.167 C 1.58 4.167 0.833 3.42 0.833 2.5 L 0 2.5 L -0.833 2.5 C -0.833 4.341 0.659 5.833 2.5 5.833 L 2.5 5 Z M 0 2.5 L 0.833 2.5 C 0.833 1.58 1.58 0.833 2.5 0.833 L 2.5 0 L 2.5 -0.833 C 0.659 -0.833 -0.833 0.659 -0.833 2.5 L 0 2.5 Z M 2.5 0 L 2.5 0.833 C 3.42 0.833 4.167 1.58 4.167 2.5 L 5 2.5 L 5.833 2.5 C 5.833 0.659 4.341 -0.833 2.5 -0.833 L 2.5 0 Z" fill="currentColor" fill-rule="nonzero"/>
</svg>
