<svg xmlns="http://www.w3.org/2000/svg" width="13.333" height="16.666" viewBox="0 0 13.333 16.666" fill="none">
  <path d="M 13.333 6.667 L 14.167 6.667 L 13.333 6.667 Z M 7.167 16.499 L 7.668 17.165 C 7.683 17.154 7.698 17.142 7.712 17.13 L 7.167 16.499 Z M 6.667 16.666 L 6.667 17.5 L 6.667 16.666 Z M 6.166 16.499 L 5.621 17.13 C 5.635 17.142 5.65 17.154 5.665 17.165 L 6.166 16.499 Z M 6.667 0 L 6.667 -0.833 L 6.667 0 Z M 13.333 6.667 L 12.5 6.667 C 12.5 8.466 11.486 10.406 10.169 12.137 C 8.87 13.842 7.377 15.217 6.623 15.868 L 7.167 16.499 L 7.712 17.13 C 8.508 16.443 10.098 14.982 11.495 13.146 C 12.873 11.336 14.167 9.028 14.167 6.667 L 13.333 6.667 Z M 7.167 16.499 L 6.667 15.833 L 6.667 15.833 L 6.667 16.666 L 6.667 17.5 C 7.028 17.5 7.38 17.382 7.668 17.165 L 7.167 16.499 Z M 6.667 16.666 L 6.667 15.833 L 6.667 15.833 L 6.166 16.499 L 5.665 17.165 C 5.954 17.382 6.305 17.5 6.667 17.5 L 6.667 16.666 Z M 6.166 16.499 L 6.71 15.868 C 5.956 15.217 4.463 13.842 3.165 12.137 C 1.847 10.406 0.833 8.466 0.833 6.667 L 0 6.667 L -0.833 6.667 C -0.833 9.028 0.461 11.336 1.839 13.146 C 3.236 14.982 4.825 16.443 5.621 17.13 L 6.166 16.499 Z M 0 6.667 L 0.833 6.667 C 0.833 5.12 1.448 3.636 2.542 2.542 L 1.953 1.953 L 1.363 1.363 C -0.043 2.77 -0.833 4.678 -0.833 6.667 L 0 6.667 Z M 1.953 1.953 L 2.542 2.542 C 3.636 1.448 5.12 0.833 6.667 0.833 L 6.667 0 L 6.667 -0.833 C 4.678 -0.833 2.77 -0.043 1.363 1.363 L 1.953 1.953 Z M 6.667 0 L 6.667 0.833 C 8.214 0.833 9.697 1.448 10.791 2.542 L 11.381 1.953 L 11.97 1.363 C 10.563 -0.043 8.656 -0.833 6.667 -0.833 L 6.667 0 Z M 11.381 1.953 L 10.791 2.542 C 11.885 3.636 12.5 5.12 12.5 6.667 L 13.333 6.667 L 14.167 6.667 C 14.167 4.678 13.376 2.77 11.97 1.363 L 11.381 1.953 Z" fill="currentColor" fill-rule="nonzero"/>
</svg>
