<svg xmlns="http://www.w3.org/2000/svg" width="32" height="50.542" viewBox="0 0 32 50.542" fill="none">
  <path d="M 25.188 32.943 C 29.338 26.782 32 21.084 32 15.728 C 32 7.042 24.837 0 16 0 C 7.163 0 0 7.042 0 15.728 C 0 23.995 6.34 33.077 14.711 43.417 C 15.136 43.941 15.566 44.469 16 45 C 16.434 44.469 16.864 43.941 17.289 43.417 C 18.833 41.509 20.309 39.644 21.688 37.819 C 22.578 36.506 21.086 35.322 20.094 36.61 C 18.813 38.305 17.442 40.043 16 41.83 C 12.154 37.066 8.812 32.643 6.346 28.478 C 3.547 23.749 2 19.55 2 15.728 C 2 8.179 8.236 2 16 2 C 23.764 2 30 8.179 30 15.728 C 30 19.55 28.453 23.749 25.654 28.478 C 25.022 29.545 24.333 30.63 23.592 31.732 C 22.858 33.026 24.308 33.987 25.188 32.943 Z" fill="currentColor" fill-rule="nonzero"/>
  <path d="M 10 40 C 4.702 40.849 1 42.787 1 45.042 C 1 48.08 7.716 50.542 16 50.542 C 24.284 50.542 31 48.08 31 45.042 C 31 42.787 27.298 40.849 22 40 C 21 40 20.5 41.542 22 42.027 C 23.487 42.282 24.812 42.625 25.918 43.031 C 27.147 43.482 28.001 43.971 28.511 44.413 C 28.76 44.628 28.888 44.799 28.949 44.909 C 28.978 44.961 28.99 44.996 28.995 45.014 C 29 45.031 29 45.039 29 45.042 C 29 45.042 29 45.047 28.999 45.052 C 28.999 45.054 28.998 45.057 28.998 45.06 C 28.997 45.063 28.996 45.067 28.995 45.071 C 28.99 45.089 28.978 45.124 28.949 45.176 C 28.888 45.285 28.76 45.456 28.511 45.672 C 28.001 46.114 27.147 46.603 25.918 47.054 C 23.476 47.949 19.97 48.542 16 48.542 C 12.03 48.542 8.524 47.949 6.082 47.054 C 4.853 46.603 3.999 46.114 3.489 45.672 C 3.24 45.456 3.112 45.285 3.051 45.176 C 3.022 45.124 3.01 45.089 3.005 45.071 C 3 45.054 3 45.046 3 45.042 C 3 45.039 3 45.031 3.005 45.014 C 3.01 44.996 3.022 44.961 3.051 44.909 C 3.112 44.799 3.24 44.628 3.489 44.413 C 3.999 43.971 4.853 43.482 6.082 43.031 C 7.188 42.625 8.513 42.282 10 42.027 C 11.487 41.773 11.5 40.042 10 40 Z" fill="currentColor" fill-rule="nonzero"/>
</svg>
