<svg xmlns="http://www.w3.org/2000/svg" width="29.501" height="22.674" viewBox="0 0 29.501 22.674" fill="none">
  <path d="M 14 1 C 14 0.448 13.552 0 13 0 C 9.235 0 6.816 1.613 6.03 4.757 C 5.896 5.293 6.222 5.836 6.757 5.97 C 7.293 6.104 7.836 5.778 7.97 5.243 C 8.517 3.054 10.098 2 13 2 C 13.552 2 14 1.552 14 1 Z" fill="currentColor" fill-rule="nonzero"/>
  <path d="M 15 10 C 15.552 10 16 10.448 16 11 C 16 14.192 14.079 15.873 11.124 16.242 C 10.139 16.365 9.112 16.337 8.107 16.209 L 7.88 16.176 L 7.861 16.268 C 7.293 18.685 5 19.933 1.303 19.997 L 1 20 C 0.448 20 0 19.552 0 19 C 0 18.448 0.448 18 1 18 C 4.513 18 6 17.009 6 15 C 6 14.349 6.611 13.872 7.243 14.03 L 7.48 14.082 L 7.841 14.149 C 7.888 14.156 7.936 14.164 7.986 14.172 C 8.958 14.324 9.962 14.372 10.876 14.258 C 12.921 14.002 14 13.058 14 11 C 14 10.448 14.448 10 15 10 Z" fill="currentColor" fill-rule="nonzero"/>
  <path d="M 26.4 14.2 C 26.842 13.869 27.469 13.958 27.8 14.4 C 30.108 17.477 30.108 20.13 27.555 21.832 C 25.049 23.503 22.486 22.649 20.2 19.6 C 19.869 19.158 19.958 18.531 20.4 18.2 C 20.842 17.869 21.469 17.958 21.8 18.4 C 23.514 20.685 24.951 21.164 26.445 20.168 C 27.892 19.203 27.892 17.857 26.2 15.6 C 25.869 15.158 25.958 14.531 26.4 14.2 Z" fill="currentColor" fill-rule="nonzero"/>
</svg>
