<svg xmlns="http://www.w3.org/2000/svg" width="53.284" height="60" viewBox="0 0 53.284 60" fill="none">
  <path d="M 24.284 0 C 27.047 0 29.222 1.271 30.72 3.724 L 30.832 3.913 L 30.861 3.91 C 34.136 3.527 36.798 4.242 38.774 6.084 L 38.991 6.293 C 40.916 8.218 41.714 10.833 41.412 14.061 L 41.394 14.236 L 41.641 14.309 C 44.571 15.199 46.185 17.039 46.28 19.744 L 46.284 20 C 46.284 23.642 44.394 26 40.284 26 C 37.065 26 35.284 24.219 35.284 21 C 35.284 20.448 35.732 20 36.284 20 C 36.836 20 37.284 20.448 37.284 21 C 37.284 23.114 38.17 24 40.284 24 C 43.18 24 44.284 22.623 44.284 20 C 44.284 17.856 42.989 16.561 40.088 15.981 C 39.56 15.875 39.211 15.371 39.297 14.84 C 39.807 11.695 39.222 9.352 37.577 7.707 C 35.932 6.063 33.589 5.477 30.444 5.987 C 30.012 6.057 29.585 5.838 29.39 5.447 C 28.22 3.108 26.558 2 24.284 2 C 19.621 2 17.284 3.363 17.284 7 C 17.284 9.806 18.9 11.422 22.448 12.014 C 22.993 12.104 23.361 12.62 23.27 13.164 C 23.18 13.709 22.664 14.077 22.12 13.986 C 18.971 13.462 16.857 12.116 15.889 10.007 C 13.119 10.107 11.746 11.274 11.254 13.243 C 11.013 14.207 11.013 15.267 11.162 16.259 L 11.204 16.517 L 11.24 16.698 C 11.245 16.721 11.25 16.741 11.254 16.757 C 11.412 17.389 10.935 18 10.284 18 C 6.083 18 3.852 19.673 3.276 23.124 C 2.68 27.894 4.259 30 8.284 30 C 12.545 30 14.783 28.881 15.314 26.757 C 15.448 26.222 15.991 25.896 16.527 26.03 C 17.062 26.164 17.388 26.707 17.254 27.243 C 16.452 30.452 13.356 32 8.284 32 C 2.976 32 0.555 28.772 1.298 22.836 C 1.985 18.711 4.641 16.412 9.018 16.05 L 9.12 16.043 L 9.096 15.809 C 9.023 14.929 9.052 14.023 9.229 13.136 L 9.314 12.757 C 9.989 10.057 11.959 8.305 15.345 8.036 C 15.305 7.704 15.284 7.358 15.284 7 C 15.284 1.97 18.662 0 24.284 0 Z" fill="currentColor" fill-rule="nonzero"/>
  <path d="M 2.731 34.106 C 2.237 33.859 1.637 34.059 1.39 34.553 C -0.808 38.947 -0.416 42.475 2.684 44.8 L 2.899 44.957 C 5.487 46.788 8.163 46.717 10.722 44.812 L 10.82 44.737 L 10.892 44.913 C 12.551 48.87 15.544 50.301 19.6 48.949 C 20.681 48.589 21.576 48.129 22.284 47.577 L 22.284 56 C 22.284 57.448 21.732 58 20.284 58 L 8.284 58 L 8.167 58.007 C 7.67 58.064 7.284 58.487 7.284 59 C 7.284 59.552 7.732 60 8.284 60 L 26.284 60 L 26.401 59.993 C 26.898 59.936 27.284 59.513 27.284 59 C 27.284 58.448 26.836 58 26.284 58 L 23.898 58 C 24.127 57.496 24.256 56.904 24.28 56.229 L 24.284 56 L 24.284 44 C 24.284 43.948 24.28 43.896 24.272 43.846 C 24.334 42.579 23.972 41.139 23.178 39.553 C 22.931 39.059 22.331 38.859 21.837 39.106 C 21.343 39.353 21.143 39.953 21.39 40.447 C 23.124 43.917 22.375 45.916 18.968 47.051 C 15.542 48.193 13.431 46.874 12.246 42.725 C 12.036 41.992 11.116 41.754 10.577 42.293 C 8.247 44.623 6.133 44.887 3.884 43.2 C 1.651 41.525 1.376 39.053 3.178 35.447 C 3.425 34.953 3.225 34.353 2.731 34.106 Z" fill="currentColor" fill-rule="nonzero"/>
  <path d="M 47.77 24.143 C 48.243 23.858 48.857 24.012 49.142 24.486 C 50.934 27.473 50.992 30.138 49.943 32.291 L 49.834 32.505 L 49.786 32.592 L 49.821 32.614 C 51.59 33.808 52.693 36.374 52.548 39.072 L 52.531 39.333 C 52.206 43.234 49.468 46.489 44.571 47.958 C 40.012 49.326 36.24 48.161 33.284 45.299 L 33.284 56 C 33.284 57.441 33.579 57.951 34.19 57.997 L 34.284 58 L 48.284 58 C 48.836 58 49.284 58.448 49.284 59 C 49.284 59.513 48.898 59.936 48.401 59.993 L 48.284 60 L 34.284 60 C 32.359 60 31.352 58.586 31.287 56.245 L 31.284 56 L 31.284 43 C 31.284 42.992 31.284 42.983 31.284 42.975 C 31.285 42.962 31.285 42.95 31.286 42.937 C 30.898 42.381 30.548 41.811 30.235 41.239 L 30.042 40.874 L 29.939 40.957 C 29.079 41.61 27.941 41.955 26.563 41.996 L 26.284 42 C 25.732 42 25.284 41.552 25.284 41 C 25.284 40.448 25.732 40 26.284 40 C 27.934 40 28.91 39.512 29.39 38.553 C 29.764 37.805 30.817 37.829 31.175 38.546 L 31.352 38.973 C 31.467 39.244 31.609 39.547 31.776 39.876 C 32.257 40.816 32.85 41.757 33.556 42.631 C 36.205 45.913 39.613 47.357 43.997 46.042 C 48.119 44.805 50.282 42.234 50.537 39.167 C 50.741 36.73 49.607 34.491 48.185 34.012 L 48.042 33.97 C 47.287 33.782 47.027 32.843 47.577 32.293 L 47.619 32.248 L 47.723 32.119 L 47.851 31.937 C 47.919 31.834 47.992 31.711 48.067 31.569 C 48.908 29.981 48.908 27.983 47.427 25.514 C 47.142 25.041 47.296 24.427 47.77 24.143 Z" fill="currentColor" fill-rule="nonzero"/>
  <path d="M 52.991 59.707 C 52.601 60.098 51.967 60.098 51.577 59.707 C 51.186 59.317 51.186 58.683 51.577 58.293 C 51.967 57.902 52.601 57.902 52.991 58.293 C 53.382 58.683 53.382 59.317 52.991 59.707 Z" fill="currentColor" fill-rule="nonzero"/>
</svg>
